<?xml version="1.0" standalone="no"?>
<!DOCTYPE svg PUBLIC "-//W3C//DTD SVG 20010904//EN"
 "http://www.w3.org/TR/2001/REC-SVG-20010904/DTD/svg10.dtd">
<svg version="1.0" xmlns="http://www.w3.org/2000/svg"
 width="1920.000000pt" height="1920.000000pt" viewBox="0 0 1920.000000 1920.000000"
 preserveAspectRatio="xMidYMid meet">

<g transform="translate(0.000000,1920.000000) scale(0.100000,-0.100000)"
fill="#000000" stroke="none">
<path d="M9790 14121 c-395 -116 -730 -340 -1049 -701 -302 -342 -594 -873
-743 -1352 -18 -59 -36 -108 -39 -108 -12 0 -50 101 -66 174 -24 109 -21 320
6 420 11 44 21 80 21 82 0 2 -24 0 -175 -16 -850 -93 -1747 -621 -2283 -1345
-82 -111 -97 -141 -64 -131 118 37 315 71 471 81 l104 7 -87 -97 c-280 -315
-443 -719 -496 -1232 -16 -149 -13 -483 5 -641 31 -264 97 -519 198 -766 l24
-58 28 88 c70 227 208 414 357 484 59 28 88 36 88 25 0 -3 -11 -47 -25 -99
-95 -368 -28 -869 192 -1430 46 -117 156 -348 223 -467 82 -145 220 -353 229
-343 4 5 20 54 36 109 92 331 221 619 377 840 78 111 276 311 384 388 45 31
86 57 91 57 5 0 22 -46 38 -102 86 -315 285 -738 464 -986 l38 -53 23 98 c120
520 397 831 845 946 167 43 246 51 485 51 347 0 564 -30 1280 -179 590 -123
828 -164 1345 -231 270 -36 439 10 718 192 202 132 887 635 921 677 19 23 47
67 63 97 37 73 39 179 6 253 -44 96 -68 115 -365 294 -637 384 -1024 612
-1228 720 -280 150 -336 187 -450 302 -156 157 -238 291 -429 701 -179 386
-218 446 -426 659 -147 150 -325 312 -610 550 -93 79 -173 149 -178 156 -4 7
-12 59 -19 114 -22 185 16 379 108 564 72 144 151 251 311 419 112 119 102
127 -89 78 -294 -74 -597 -227 -834 -421 -61 -49 -78 -59 -86 -48 -14 20 -2
260 17 349 51 237 180 553 332 818 14 23 21 42 16 41 -4 0 -51 -13 -103 -28z
m664 -3524 c191 -170 346 -311 344 -313 -17 -16 -610 81 -629 104 -3 4 -21
113 -38 242 -18 129 -35 246 -38 259 -4 14 -2 22 4 20 6 -2 167 -143 357 -312z"/>
<path d="M9315 7816 c-232 -38 -394 -112 -535 -243 -232 -215 -354 -549 -389
-1066 -5 -77 -12 -141 -15 -144 -8 -8 -145 85 -228 154 -134 113 -282 297
-414 513 -64 105 -192 353 -243 470 l-33 75 -29 -35 c-107 -126 -263 -415
-338 -626 -45 -127 -101 -335 -121 -451 -16 -86 -20 -80 142 -230 503 -465
1213 -837 2043 -1069 138 -38 419 -104 446 -104 14 0 12 16 -18 113 -42 137
-115 426 -143 563 -175 872 -51 1493 360 1803 133 100 270 163 460 211 l105
27 -75 7 c-447 42 -840 55 -975 32z"/>
</g>
</svg>
